<svg width="260" height="236" viewBox="0 0 260 236" fill="none" xmlns="http://www.w3.org/2000/svg">
<path d="M202.343 80.7141C215.247 75.0481 221.315 59.7632 213.008 48.3782C202.132 33.472 187.833 21.2285 171.168 12.767C146.863 0.425689 119.03 -3.10619 92.4121 2.77317C65.7943 8.65253 42.0385 23.5794 25.1925 45.0103C8.34652 66.4413 -0.547437 93.0504 0.0260805 120.304C0.599598 147.557 10.6051 173.768 28.3378 194.472C46.0705 215.175 70.4331 229.089 97.2747 233.844C124.116 238.598 151.776 233.898 175.541 220.545C191.835 211.39 205.606 198.556 215.846 183.206C223.666 171.481 216.96 156.465 203.829 151.347V151.347C190.698 146.229 176.167 153.257 166.522 163.533C161.898 168.46 156.519 172.693 150.541 176.051C137.07 183.62 121.391 186.284 106.176 183.589C90.961 180.894 77.1512 173.007 67.0995 161.272C57.0478 149.536 51.3763 134.678 51.0512 119.23C50.7261 103.782 55.7676 88.6983 65.3166 76.5503C74.8657 64.4022 88.3315 55.941 103.42 52.6083C118.508 49.2756 134.285 51.2777 148.062 58.2733C154.176 61.3776 159.728 65.3801 164.556 70.1085C174.625 79.9697 189.439 86.3802 202.343 80.7141V80.7141Z" fill="#F5FFFF"/>
<path fill-rule="evenodd" clip-rule="evenodd" d="M127.251 156.314C144.765 156.314 159.601 144.85 164.666 129.016C165.738 129.399 166.893 129.607 168.097 129.607H239.577V147.674C239.577 153.313 244.149 157.885 249.789 157.885C255.428 157.885 260 153.313 260 147.674V119.396C260 113.756 255.428 109.184 249.788 109.184H168.097C167.304 109.184 166.533 109.274 165.792 109.445C162.255 91.3883 146.344 77.7642 127.251 77.7642C105.56 77.7642 87.9758 95.3481 87.9758 117.039C87.9758 138.73 105.56 156.314 127.251 156.314Z" fill="#F5FFFF"/>
<circle cx="127.251" cy="117.039" r="23.565" fill="#141414"/>
</svg>
