<svg width="41" height="41" viewBox="0 0 41 41" fill="none" xmlns="http://www.w3.org/2000/svg">
<path fill-rule="evenodd" clip-rule="evenodd" d="M22.5898 6.30981C21.4746 5.7281 19.9638 5.71979 18.8386 6.29984C14.5289 8.52696 10.6199 11.0782 7.19441 13.9086C6.66422 14.3457 6.2886 14.9823 6.29525 15.7302C6.3019 16.4764 6.68417 17.103 7.21103 17.5335C10.6082 20.3107 14.5206 22.8653 18.7505 25.0741C19.8674 25.6558 21.3765 25.6641 22.5017 25.0841C26.8113 22.857 30.7204 20.3058 34.1459 17.4753C34.6761 17.0382 35.0517 16.4017 35.045 15.6537C35.0384 14.9075 34.6545 14.2809 34.1293 13.8504C30.7321 11.0732 26.8196 8.51865 22.5898 6.30981ZM19.9804 8.51533C20.2097 8.41339 20.458 8.36114 20.7089 8.362C20.9598 8.36285 21.2077 8.41681 21.4363 8.52031C25.4734 10.6278 29.193 13.0527 32.4157 15.6704C29.1747 18.3313 25.4651 20.7479 21.3582 22.8686C20.9593 23.0747 20.3062 23.073 19.9039 22.8636C15.8669 20.7562 12.1473 18.3313 8.92292 15.7136C12.1655 13.0527 15.8752 10.6361 19.9821 8.51533" fill="#F5FFFF"/>
<path d="M35.9557 21.8297C36.1305 22.1101 36.1869 22.4485 36.1124 22.7704C36.038 23.0924 35.8387 23.3715 35.5584 23.5466L25.4084 29.8839C24.0306 30.7449 22.322 31.1421 20.67 31.1421C19.0179 31.1421 17.3094 30.7432 15.9315 29.8856L5.89288 23.6198C5.61231 23.4448 5.41275 23.1655 5.3381 22.8433C5.26345 22.5212 5.31982 22.1826 5.49482 21.902C5.66982 21.6215 5.9491 21.4219 6.27123 21.3473C6.59337 21.2726 6.93196 21.329 7.21253 21.504L17.2512 27.7698C18.1553 28.3349 19.3836 28.6491 20.67 28.6491C21.9547 28.6491 23.183 28.3333 24.0871 27.7682L34.2388 21.4325C34.5192 21.2576 34.8575 21.2013 35.1794 21.2757C35.5014 21.3502 35.7806 21.5495 35.9557 21.8297Z" fill="#F5FFFF"/>
<path d="M35.9558 28.071C36.1306 28.3514 36.187 28.6897 36.1125 29.0117C36.0381 29.3336 35.8388 29.6128 35.5585 29.7879L26.7697 35.2792C25.0113 36.3762 22.8141 36.8931 20.6701 36.8931C18.5294 36.8931 16.3322 36.3778 14.5721 35.2809L5.89297 29.8627C5.61241 29.6875 5.41293 29.408 5.33844 29.0857C5.26395 28.7634 5.32053 28.4247 5.49575 28.1441C5.67097 27.8636 5.95046 27.6641 6.27275 27.5896C6.59504 27.5151 6.93372 27.5717 7.21429 27.7469L15.8934 33.1651C17.1782 33.9679 18.8967 34.4 20.6717 34.4C22.4468 34.4 24.1653 33.9679 25.4501 33.1651L34.2389 27.6755C34.3778 27.5886 34.5324 27.53 34.694 27.5029C34.8556 27.4759 35.0209 27.481 35.1805 27.5179C35.3401 27.5548 35.4909 27.6227 35.6242 27.7179C35.7575 27.8131 35.8707 27.9337 35.9574 28.0727" fill="#F5FFFF"/>
</svg>
