<svg width="14" height="14" viewBox="0 0 14 14" fill="none" xmlns="http://www.w3.org/2000/svg">
<path d="M6.40205 2.27065C6.51955 1.90978 7.02979 1.90978 7.14728 2.27065L8.00551 4.91305C8.03114 4.99166 8.081 5.06014 8.14793 5.10868C8.21486 5.15722 8.29544 5.18333 8.37812 5.18328H11.1565C11.5358 5.18328 11.6936 5.6689 11.3864 5.89213L9.13901 7.52468C9.07209 7.57333 9.02229 7.64192 8.99676 7.72062C8.97123 7.79932 8.97128 7.88408 8.9969 7.96275L9.85514 10.6052C9.97263 10.966 9.55918 11.2653 9.25258 11.0427L7.00517 9.41012C6.93825 9.36149 6.85766 9.3353 6.77495 9.3353C6.69223 9.3353 6.61164 9.36149 6.54472 9.41012L4.29619 11.0427C3.9896 11.2659 3.57614 10.966 3.69363 10.6052L4.55187 7.96275C4.57749 7.88408 4.57754 7.79932 4.55201 7.72062C4.52648 7.64192 4.47669 7.57333 4.40976 7.52468L2.16235 5.89213C1.8552 5.6689 2.01297 5.18328 2.39229 5.18328H5.17065C5.25333 5.18333 5.33391 5.15722 5.40084 5.10868C5.46778 5.06014 5.51763 4.99166 5.54326 4.91305L6.40205 2.27065Z" fill="#C40101"/>
</svg>
