<svg width="30" height="27" viewBox="0 0 30 27" fill="none" xmlns="http://www.w3.org/2000/svg">
<path fill-rule="evenodd" clip-rule="evenodd" d="M14.9334 0.333496H15.0667C16.2667 0.333496 17.2667 0.333496 18.0534 0.440163C18.8934 0.546829 19.64 0.800163 20.2534 1.4135C20.8667 2.0135 21.1067 2.7735 21.2267 3.6135C21.3067 4.18683 21.32 4.88016 21.3334 5.68016C22.1467 5.6935 22.8534 5.72016 23.48 5.78683C24.6667 5.90683 25.6534 6.16016 26.52 6.7335C27.2134 7.20016 27.8 7.78683 28.2667 8.48016C28.84 9.34683 29.0934 10.3335 29.2134 11.5202C29.3334 12.6668 29.3334 14.1202 29.3334 15.9468V16.0535C29.3334 17.8802 29.3334 19.3335 29.2134 20.4802C29.0934 21.6668 28.84 22.6535 28.2667 23.5202C27.8 24.2135 27.2134 24.8002 26.52 25.2668C25.6534 25.8402 24.6667 26.0935 23.48 26.2135C22.32 26.3335 20.88 26.3335 19.0534 26.3335H10.9467C9.12002 26.3335 7.68002 26.3335 6.52002 26.2135C5.33335 26.0935 4.34669 25.8402 3.48002 25.2668C2.78669 24.8002 2.20002 24.2135 1.73335 23.5202C1.16002 22.6535 0.906687 21.6668 0.786687 20.4802C0.666687 19.3335 0.666687 17.8802 0.666687 16.0535V15.9468C0.666687 14.1202 0.666687 12.6668 0.786687 11.5202C0.906687 10.3335 1.16002 9.34683 1.73335 8.48016C2.20002 7.78683 2.78669 7.20016 3.48002 6.7335C4.34669 6.16016 5.33335 5.90683 6.52002 5.78683C7.14669 5.72016 7.85335 5.6935 8.66669 5.68016C8.66669 4.88016 8.69335 4.18683 8.77335 3.6135C8.88002 2.7735 9.13335 2.0135 9.74669 1.4135C10.36 0.800163 11.1067 0.546829 11.9467 0.440163C12.7334 0.333496 13.7334 0.333496 14.9334 0.333496ZM19.24 3.88016C19.3067 4.3335 19.32 4.90683 19.32 5.66683H10.6534C10.6534 4.90683 10.68 4.3335 10.7334 3.88016C10.8134 3.2535 10.96 3.00016 11.1334 2.82683C11.3067 2.6535 11.5734 2.50683 12.1867 2.42683C12.8267 2.3335 13.6934 2.3335 14.9734 2.3335C16.2534 2.3335 17.12 2.3335 17.76 2.42683C18.3734 2.50683 18.64 2.6535 18.8134 2.82683C18.9867 3.00016 19.1334 3.2535 19.2134 3.88016H19.24ZM6.72002 7.7735C5.69335 7.88016 5.08002 8.08016 4.58669 8.40016C4.12002 8.70683 3.70669 9.12016 3.38669 9.58683C3.06669 10.0802 2.86669 10.6935 2.76002 11.7202C2.65335 12.7602 2.65335 14.1068 2.65335 16.0002C2.65335 17.8935 2.65335 19.2402 2.76002 20.2802C2.86669 21.3068 3.06669 21.9202 3.38669 22.4135C3.70669 22.8802 4.10669 23.2935 4.58669 23.6002C5.06669 23.9202 5.69335 24.1202 6.72002 24.2268C7.76002 24.3335 9.10669 24.3335 11 24.3335H19C20.8934 24.3335 22.24 24.3335 23.28 24.2268C24.3067 24.1202 24.92 23.9202 25.4134 23.6002C25.88 23.2935 26.2934 22.8802 26.6134 22.4135C26.9334 21.9202 27.1334 21.3068 27.24 20.2802C27.3467 19.2402 27.3467 17.8935 27.3467 16.0002C27.3467 14.1068 27.3467 12.7602 27.24 11.7202C27.1334 10.6935 26.9334 10.0802 26.6134 9.58683C26.2934 9.12016 25.8934 8.70683 25.4134 8.40016C24.9334 8.08016 24.3067 7.88016 23.28 7.7735C22.24 7.66683 20.8934 7.66683 19 7.66683H11C9.10669 7.66683 7.76002 7.66683 6.72002 7.7735ZM7.29335 11.0402C7.1673 11.0011 7.03476 10.9874 6.90338 10.9998C6.772 11.0122 6.64438 11.0505 6.52787 11.1125C6.41136 11.1745 6.30827 11.2589 6.22454 11.3609C6.14081 11.4629 6.0781 11.5805 6.04002 11.7068C5.88002 12.2268 6.17335 12.7868 6.69335 12.9602L7.56002 13.2268C9.62669 13.8668 11.8 14.2268 13.9867 14.3202V16.0002C13.9867 16.5468 14.44 17.0002 14.9867 17.0002C15.5334 17.0002 15.9867 16.5468 15.9867 16.0002V14.3202C18.1734 14.2268 20.3467 13.8668 22.4134 13.2268L23.28 12.9602C23.8134 12.7868 24.1067 12.2268 23.9334 11.7068C23.8953 11.5805 23.8326 11.4629 23.7488 11.3609C23.6651 11.2589 23.562 11.1745 23.4455 11.1125C23.329 11.0505 23.2014 11.0122 23.07 10.9998C22.9386 10.9874 22.8061 11.0011 22.68 11.0402L21.8134 11.3202C17.3575 12.6681 12.6025 12.6681 8.14669 11.3202L7.28002 11.0402H7.29335Z" fill="#F5FFFF"/>
</svg>
