<svg width="41" height="41" viewBox="0 0 41 41" fill="none" xmlns="http://www.w3.org/2000/svg">
<path d="M19.7051 12.6915C19.4407 12.6915 19.187 12.7966 19 12.9836C18.813 13.1706 18.7079 13.4243 18.7079 13.6888C18.7079 13.9532 18.813 14.2069 19 14.3939C19.187 14.5809 19.4407 14.686 19.7051 14.686H25.2439L16.9727 22.9552C16.88 23.0479 16.8064 23.158 16.7562 23.2791C16.7061 23.4003 16.6802 23.5301 16.6802 23.6613C16.6802 23.7924 16.7061 23.9222 16.7562 24.0434C16.8064 24.1645 16.88 24.2746 16.9727 24.3673C17.0654 24.46 17.1755 24.5336 17.2966 24.5838C17.4178 24.6339 17.5476 24.6598 17.6787 24.6598C17.8099 24.6598 17.9397 24.6339 18.0608 24.5838C18.182 24.5336 18.2921 24.46 18.3848 24.3673L26.654 16.0961V21.6348C26.654 21.8993 26.7591 22.153 26.9461 22.34C27.1331 22.527 27.3867 22.6321 27.6512 22.6321C27.9157 22.6321 28.1694 22.527 28.3564 22.34C28.5434 22.153 28.6485 21.8993 28.6485 21.6348V13.6888C28.6485 13.4243 28.5434 13.1706 28.3564 12.9836C28.1694 12.7966 27.9157 12.6915 27.6512 12.6915H19.7051ZM26.1873 34.631C27.3751 34.6313 28.524 34.2075 29.4272 33.436C30.3303 32.6645 30.9284 31.5959 31.1137 30.4226C32.1328 30.1087 33.0243 29.4763 33.6576 28.6184C34.2908 27.7604 34.6323 26.7221 34.632 25.6558V11.6943C34.632 10.3718 34.1066 9.10355 33.1715 8.16845C32.2364 7.23334 30.9682 6.70801 29.6457 6.70801H15.6842C14.6061 6.70763 13.5569 7.05669 12.6939 7.70286C11.8309 8.34904 11.2006 9.25752 10.8974 10.2921C9.72814 10.4817 8.6645 11.0813 7.89704 11.9836C7.12957 12.8859 6.70841 14.032 6.70898 15.2165V27.6503C6.70898 29.5017 7.44445 31.2772 8.7536 32.5864C10.0627 33.8955 11.8383 34.631 13.6897 34.631H26.1873ZM8.70348 15.2165C8.70275 14.5973 8.89421 13.993 9.25145 13.4871C9.6087 12.9813 10.1141 12.5988 10.698 12.3923V25.6558C10.698 26.9782 11.2233 28.2465 12.1584 29.1816C13.0935 30.1167 14.3618 30.642 15.6842 30.642H29.0075C28.8013 31.2252 28.4194 31.7302 27.9143 32.0874C27.4092 32.4446 26.8059 32.6364 26.1873 32.6365H13.6897C12.3673 32.6365 11.099 32.1112 10.1639 31.1761C9.22882 30.241 8.70348 28.9727 8.70348 27.6503V15.2165ZM15.6842 8.70251H29.6457C30.4392 8.70251 31.2002 9.01771 31.7612 9.57877C32.3223 10.1398 32.6375 10.9008 32.6375 11.6943V25.6558C32.6375 26.4492 32.3223 27.2102 31.7612 27.7712C31.2002 28.3323 30.4392 28.6475 29.6457 28.6475H15.6842C14.8908 28.6475 14.1298 28.3323 13.5687 27.7712C13.0077 27.2102 12.6925 26.4492 12.6925 25.6558V11.6943C12.6925 10.9008 13.0077 10.1398 13.5687 9.57877C14.1298 9.01771 14.8908 8.70251 15.6842 8.70251Z" fill="#F5FFFF"/>
</svg>
