<svg width="24" height="24" viewBox="0 0 24 24" fill="none" xmlns="http://www.w3.org/2000/svg">
<path d="M7.60059 1.38887H17.291C20.6286 1.38898 23.3408 4.10205 23.3408 7.43965V17.1301C23.3408 18.7346 22.7039 20.2738 21.5693 21.4084C20.4348 22.543 18.8956 23.1798 17.291 23.1799H7.60059C4.26298 23.1799 1.54991 20.4677 1.5498 17.1301V7.43965C1.5498 5.83504 2.18764 4.29596 3.32227 3.16133C4.45689 2.0267 5.99598 1.38887 7.60059 1.38887ZM7.36914 2.41426C6.09784 2.41437 4.87845 2.9196 3.97949 3.81856C3.08054 4.71751 2.5753 5.9369 2.5752 7.20821V17.3605C2.5752 20.0101 4.71963 22.1543 7.36914 22.1545H17.5215C18.7929 22.1545 20.0121 21.6492 20.9111 20.7502C21.8102 19.8511 22.3154 18.632 22.3154 17.3605V7.20821C22.3152 4.55869 20.1711 2.41426 17.5215 2.41426H7.36914ZM12.4453 7.15742C13.8051 7.15742 15.1097 7.69783 16.0713 8.65938C17.0326 9.62085 17.5732 10.9247 17.5732 12.2844C17.5732 13.6442 17.0328 14.9488 16.0713 15.9104C15.1097 16.8719 13.8051 17.4123 12.4453 17.4123C11.0857 17.4122 9.78178 16.8717 8.82031 15.9104C7.85876 14.9488 7.31836 13.6442 7.31836 12.2844C7.31842 10.9246 7.85882 9.62087 8.82031 8.65938C9.78181 7.69788 11.0856 7.15749 12.4453 7.15742ZM12.4453 8.18282C11.3575 8.18288 10.3141 8.6148 9.54492 9.38399C8.77574 10.1532 8.34381 11.1966 8.34375 12.2844C8.34375 13.3721 8.77583 14.4156 9.54492 15.1848C10.3141 15.954 11.3575 16.3859 12.4453 16.3859C13.5332 16.3859 14.5765 15.954 15.3457 15.1848C16.1149 14.4155 16.5469 13.3722 16.5469 12.2844C16.5468 11.1966 16.1149 10.1532 15.3457 9.38399C14.5765 8.61489 13.5331 8.18282 12.4453 8.18282ZM18.502 5.42696C18.7143 5.42696 18.9181 5.51123 19.0684 5.66133C19.2185 5.81151 19.3036 6.01536 19.3037 6.22774C19.3037 6.44019 19.2186 6.64391 19.0684 6.79414C18.9181 6.94438 18.7144 7.0295 18.502 7.0295C18.2895 7.02945 18.0857 6.94434 17.9355 6.79414C17.7855 6.64392 17.7012 6.44011 17.7012 6.22774C17.7012 6.01536 17.7854 5.81151 17.9355 5.66133C18.0857 5.51116 18.2896 5.427 18.502 5.42696Z" stroke="white" stroke-width="1.28182"/>
</svg>
