<svg width="41" height="41" viewBox="0 0 41 41" fill="none" xmlns="http://www.w3.org/2000/svg">
<path d="M20.5 32.312H7M34 8.68701L28.9375 8.68701M34 32.312H27.25M22.1875 8.68701H7M12.0625 20.4995H7M34 20.4995H18.8125" stroke="#141414" stroke-width="1.62" stroke-linecap="round"/>
<path d="M27.25 32.3125C27.25 30.4485 25.739 28.9375 23.875 28.9375C22.011 28.9375 20.5 30.4485 20.5 32.3125C20.5 34.1765 22.011 35.6875 23.875 35.6875C25.739 35.6875 27.25 34.1765 27.25 32.3125Z" stroke="#141414" stroke-width="1.62" stroke-linecap="round"/>
<path d="M18.8125 20.5005C18.8125 18.6365 17.3015 17.1255 15.4375 17.1255C13.5735 17.1255 12.0625 18.6365 12.0625 20.5005C12.0625 22.3644 13.5735 23.8755 15.4375 23.8755C17.3015 23.8755 18.8125 22.3644 18.8125 20.5005Z" stroke="#141414" stroke-width="1.62" stroke-linecap="round"/>
<path d="M28.9375 8.68701C28.9375 6.82305 27.4265 5.31201 25.5625 5.31201C23.6985 5.31201 22.1875 6.82305 22.1875 8.68701C22.1875 10.551 23.6985 12.062 25.5625 12.062C27.4265 12.062 28.9375 10.551 28.9375 8.68701Z" stroke="#141414" stroke-width="1.62" stroke-linecap="round"/>
</svg>
