<svg width="20" height="21" viewBox="0 0 20 21" fill="none" xmlns="http://www.w3.org/2000/svg">
<path d="M10.1777 0.440918C15.6036 0.440918 20.0018 4.83911 20.0018 10.2651C20.0018 15.691 15.6036 20.0892 10.1777 20.0892C4.75175 20.0892 0.353516 15.691 0.353516 10.2651C0.353516 4.83911 4.75175 0.440918 10.1777 0.440918ZM14.6864 5.75633C12.7304 3.8114 9.6362 3.73405 7.76861 5.60162C4.46554 8.90476 5.43951 14.7232 5.47989 14.9546L5.48111 14.9617C5.48111 14.9617 11.4817 16.0336 14.8411 12.6741C16.7087 10.8066 16.6424 7.70133 14.6864 5.75633ZM11.3048 6.19841L12.2663 8.17647L14.2443 9.13791L12.2663 10.0994L11.3048 12.0774L10.3435 10.0994L8.36535 9.13791L10.3435 8.17647L11.3048 6.19841Z" fill="white"/>
</svg>
