<svg width="60" height="99" viewBox="0 0 60 99" fill="none" xmlns="http://www.w3.org/2000/svg">
<path d="M13.7781 12.5386V4.10257H15.4101V12.5386H13.7781ZM14.9781 9.08257V7.63057H19.2261V9.08257H14.9781ZM14.9781 5.54257V4.10257H19.4301V5.54257H14.9781ZM21.9156 9.01057V7.73857H23.8716C24.2716 7.73857 24.5796 7.63857 24.7956 7.43857C25.0196 7.23057 25.1316 6.94657 25.1316 6.58657C25.1316 6.25857 25.0196 5.98657 24.7956 5.77057C24.5796 5.54657 24.2716 5.43457 23.8716 5.43457H21.9156V4.10257H24.0156C24.5596 4.10257 25.0356 4.21057 25.4436 4.42657C25.8596 4.63457 26.1796 4.92257 26.4036 5.29057C26.6356 5.65857 26.7516 6.08257 26.7516 6.56257C26.7516 7.05857 26.6356 7.49057 26.4036 7.85857C26.1796 8.21857 25.8596 8.50257 25.4436 8.71057C25.0276 8.91057 24.5436 9.01057 23.9916 9.01057H21.9156ZM20.7156 12.5386V4.10257H22.3476V12.5386H20.7156ZM25.3236 12.5386L22.5396 8.89057L24.0396 8.42257L27.3036 12.5386H25.3236ZM32.105 12.6706C31.489 12.6706 30.913 12.5586 30.377 12.3346C29.849 12.1106 29.385 11.8026 28.985 11.4106C28.593 11.0106 28.285 10.5466 28.061 10.0186C27.837 9.48257 27.725 8.91057 27.725 8.30257C27.725 7.69457 27.833 7.13057 28.049 6.61057C28.273 6.08257 28.581 5.62257 28.973 5.23057C29.373 4.83057 29.837 4.52257 30.365 4.30657C30.893 4.08257 31.465 3.97057 32.081 3.97057C32.705 3.97057 33.281 4.08257 33.809 4.30657C34.337 4.52257 34.797 4.83057 35.189 5.23057C35.589 5.62257 35.901 6.08257 36.125 6.61057C36.349 7.13857 36.461 7.70657 36.461 8.31457C36.461 8.92257 36.349 9.49057 36.125 10.0186C35.901 10.5466 35.589 11.0106 35.189 11.4106C34.797 11.8026 34.337 12.1106 33.809 12.3346C33.289 12.5586 32.721 12.6706 32.105 12.6706ZM32.081 11.1466C32.625 11.1466 33.097 11.0266 33.497 10.7866C33.897 10.5466 34.209 10.2146 34.433 9.79057C34.665 9.36657 34.781 8.87057 34.781 8.30257C34.781 7.88657 34.717 7.50657 34.589 7.16257C34.461 6.81857 34.277 6.52257 34.037 6.27457C33.797 6.01857 33.513 5.82257 33.185 5.68657C32.857 5.55057 32.489 5.48257 32.081 5.48257C31.553 5.48257 31.085 5.60257 30.677 5.84257C30.277 6.07457 29.961 6.40257 29.729 6.82657C29.505 7.25057 29.393 7.74257 29.393 8.30257C29.393 8.72657 29.457 9.11457 29.585 9.46657C29.721 9.81857 29.905 10.1186 30.137 10.3666C30.377 10.6146 30.661 10.8066 30.989 10.9426C31.325 11.0786 31.689 11.1466 32.081 11.1466ZM37.7546 12.5386V4.10257H38.9066L42.3266 9.57457H41.6666L45.0746 4.10257H46.2266V12.5386H44.6066V6.89857L44.9186 6.99457L42.5426 10.8106H41.4386L39.0626 6.99457L39.3866 6.89857V12.5386H37.7546Z" fill="white"/>
<path d="M45.2305 43.781C47.9472 42.5882 49.2247 39.3703 47.4759 36.9735C45.1862 33.8353 42.1758 31.2577 38.6675 29.4764C33.5505 26.8782 27.6909 26.1346 22.0872 27.3724C16.4834 28.6102 11.4822 31.7527 7.93571 36.2644C4.38918 40.7762 2.51677 46.3781 2.63751 52.1157C2.75825 57.8532 4.86467 63.3714 8.59787 67.73C12.3311 72.0886 17.46 75.0179 23.1109 76.0188C28.7618 77.0197 34.5849 76.0303 39.588 73.2192C43.0182 71.2918 45.9175 68.5899 48.0732 65.3582C49.7196 62.8899 48.3079 59.7286 45.5434 58.6511C42.779 57.5736 39.7199 59.0532 37.6894 61.2165C36.7157 62.2539 35.5833 63.1449 34.3248 63.852C31.4888 65.4455 28.188 66.0064 24.9849 65.439C21.7817 64.8716 18.8744 63.2112 16.7582 60.7405C14.6421 58.2699 13.4481 55.1419 13.3796 51.8896C13.3112 48.6373 14.3726 45.4619 16.3829 42.9044C18.3932 40.3469 21.2281 38.5656 24.4046 37.864C27.581 37.1624 30.9025 37.5839 33.803 39.0566C35.0902 39.7102 36.2591 40.5528 37.2755 41.5483C39.3952 43.6243 42.5138 44.9739 45.2305 43.781Z" fill="#F5FFFF"/>
<path fill-rule="evenodd" clip-rule="evenodd" d="M29.4207 59.6968C33.1079 59.6968 36.2314 57.2834 37.2976 53.9501C37.5233 54.0305 37.7664 54.0743 38.0197 54.0743H53.0684V57.8778C53.0684 59.0651 54.0309 60.0276 55.2182 60.0276C56.4055 60.0276 57.368 59.0651 57.368 57.8778V51.9246C57.368 50.8114 56.5219 49.8959 55.4378 49.7859C55.3656 49.7785 55.2923 49.7748 55.2182 49.7748C55.2181 49.7748 55.2181 49.7748 55.218 49.7748H38.0197C37.8529 49.7748 37.6906 49.7938 37.5347 49.8297C36.79 46.0283 33.4403 43.16 29.4207 43.16C24.8542 43.16 21.1523 46.8619 21.1523 51.4284C21.1523 55.995 24.8542 59.6968 29.4207 59.6968Z" fill="#F5FFFF"/>
<circle cx="29.4216" cy="51.4285" r="4.96104" fill="black"/>
<path d="M5.38484 94.1765C4.66863 94.1765 4.00547 94.0572 3.39537 93.8184C2.79411 93.5709 2.26358 93.226 1.80379 92.7839C1.35284 92.3418 0.999158 91.829 0.742737 91.2454C0.495158 90.653 0.371368 90.0119 0.371368 89.3222C0.371368 88.6237 0.499579 87.9826 0.756 87.3991C1.02126 86.8066 1.38821 86.2938 1.85684 85.8605C2.32547 85.4184 2.86926 85.078 3.48821 84.8393C4.116 84.5917 4.78358 84.4679 5.49095 84.4679C6.33095 84.4679 7.09137 84.6182 7.77221 84.9189C8.45305 85.2106 9.00568 85.6174 9.4301 86.1391L7.83853 87.7306C7.52021 87.3504 7.17095 87.0675 6.79074 86.8818C6.41053 86.6873 5.96842 86.59 5.46442 86.59C4.95158 86.59 4.49179 86.705 4.08505 86.9349C3.68716 87.1559 3.36884 87.4698 3.13011 87.8765C2.89137 88.2833 2.772 88.7607 2.772 89.309C2.772 89.8572 2.88253 90.3391 3.10358 90.7546C3.33347 91.1702 3.64295 91.493 4.032 91.7229C4.42989 91.9527 4.88526 92.0677 5.3981 92.0677C5.91095 92.0677 6.34421 91.9704 6.69789 91.7759C7.06042 91.5814 7.33453 91.2984 7.52021 90.9271C7.71474 90.5557 7.812 90.1136 7.812 89.6007L9.41684 90.6353L5.13284 90.5292V88.5927H10.1994V88.9509C10.1994 90.0738 9.996 91.0243 9.58926 91.8024C9.18253 92.5805 8.61663 93.173 7.89158 93.5797C7.17537 93.9776 6.33979 94.1765 5.38484 94.1765ZM11.1678 94.0306V87.545H13.4756V94.0306H11.1678ZM13.4756 90.5026L12.441 89.6273C12.6975 88.8934 13.0379 88.3407 13.4623 87.9694C13.8867 87.598 14.4394 87.4123 15.1202 87.4123C15.4297 87.4123 15.6949 87.4521 15.916 87.5317C16.1459 87.6113 16.3404 87.7351 16.4996 87.9031L15.16 89.6936C15.0893 89.614 14.9876 89.5521 14.8549 89.5079C14.7312 89.4549 14.5897 89.4283 14.4305 89.4283C14.1299 89.4283 13.8956 89.5212 13.7276 89.7069C13.5596 89.8837 13.4756 90.149 13.4756 90.5026ZM19.4818 94.1633C18.8806 94.1633 18.3456 94.0174 17.877 93.7256C17.4083 93.4338 17.0414 93.0359 16.7761 92.5319C16.5109 92.0191 16.3782 91.4399 16.3782 90.7944C16.3782 90.1401 16.5109 89.5565 16.7761 89.0437C17.0414 88.5309 17.4083 88.133 17.877 87.85C18.3456 87.5582 18.8806 87.4123 19.4818 87.4123C19.8886 87.4123 20.2599 87.4875 20.5959 87.6378C20.9319 87.7793 21.206 87.9826 21.4182 88.2479C21.6393 88.5132 21.7719 88.8138 21.8161 89.1498V92.4125C21.7719 92.7574 21.6393 93.0624 21.4182 93.3277C21.206 93.5841 20.9319 93.7875 20.5959 93.9378C20.2599 94.0881 19.8886 94.1633 19.4818 94.1633ZM19.9726 92.1075C20.3528 92.1075 20.6578 91.9837 20.8877 91.7361C21.1264 91.4885 21.2458 91.1702 21.2458 90.7812C21.2458 90.5247 21.1928 90.2993 21.0867 90.1047C20.9806 89.9102 20.8302 89.7555 20.6357 89.6405C20.45 89.5256 20.2334 89.4681 19.9858 89.4681C19.7382 89.4681 19.5172 89.5256 19.3227 89.6405C19.137 89.7555 18.9867 89.9146 18.8717 90.118C18.7656 90.3125 18.7126 90.5336 18.7126 90.7812C18.7126 91.0376 18.7656 91.2675 18.8717 91.4709C18.9778 91.6654 19.1281 91.8201 19.3227 91.9351C19.5172 92.05 19.7338 92.1075 19.9726 92.1075ZM21.153 94.0306V92.2932L21.4846 90.7016L21.153 89.1365V87.545H23.421V94.0306H21.153ZM27.2347 94.2163C26.8368 94.2163 26.4433 94.1633 26.0542 94.0572C25.674 93.9511 25.3159 93.8096 24.9799 93.6327C24.6528 93.4471 24.3742 93.2349 24.1443 92.9961L25.4043 91.7096C25.6165 91.9306 25.8685 92.1031 26.1603 92.2269C26.461 92.3506 26.7793 92.4125 27.1153 92.4125C27.3098 92.4125 27.4557 92.386 27.553 92.333C27.6591 92.2799 27.7121 92.2047 27.7121 92.1075C27.7121 91.966 27.637 91.8599 27.4867 91.7892C27.3452 91.7096 27.1551 91.6433 26.9163 91.5902C26.6864 91.5283 26.4433 91.4576 26.1869 91.378C25.9304 91.2896 25.6829 91.1746 25.4441 91.0332C25.2054 90.8917 25.0109 90.6927 24.8605 90.4363C24.7191 90.1799 24.6483 89.8527 24.6483 89.4549C24.6483 89.0393 24.7589 88.6767 24.9799 88.3673C25.2098 88.049 25.5281 87.8014 25.9349 87.6245C26.3416 87.4389 26.8191 87.346 27.3673 87.346C27.9243 87.346 28.4549 87.4433 28.9589 87.6378C29.4629 87.8235 29.8696 88.1064 30.1791 88.4866L28.9058 89.7732C28.6936 89.5344 28.4593 89.3709 28.2029 89.2824C27.9464 89.1852 27.7121 89.1365 27.4999 89.1365C27.2965 89.1365 27.1507 89.1675 27.0622 89.2294C26.9738 89.2824 26.9296 89.3576 26.9296 89.4549C26.9296 89.5698 27.0003 89.6626 27.1418 89.7334C27.2921 89.8041 27.4822 89.8704 27.7121 89.9323C27.9509 89.9854 28.194 90.0561 28.4416 90.1445C28.698 90.233 28.9412 90.3567 29.1711 90.5159C29.4098 90.6662 29.5999 90.8696 29.7414 91.126C29.8917 91.3824 29.9669 91.714 29.9669 92.1207C29.9669 92.7662 29.7193 93.2791 29.2241 93.6593C28.729 94.0306 28.0658 94.2163 27.2347 94.2163ZM34.2204 94.1765C33.5307 94.1765 32.9073 94.0306 32.3503 93.7389C31.8021 93.4471 31.3688 93.0447 31.0505 92.5319C30.7322 92.0191 30.573 91.4399 30.573 90.7944C30.573 90.1401 30.7322 89.5565 31.0505 89.0437C31.3777 88.5309 31.8153 88.1285 32.3636 87.8367C32.9206 87.5361 33.5484 87.3858 34.2469 87.3858C34.7509 87.3858 35.2107 87.4698 35.6263 87.6378C36.0419 87.8058 36.4221 88.0578 36.7669 88.3938L35.308 89.8527C35.1753 89.7201 35.0206 89.6229 34.8438 89.561C34.6758 89.4902 34.4768 89.4549 34.2469 89.4549C33.9993 89.4549 33.7739 89.5123 33.5705 89.6273C33.376 89.7334 33.2168 89.8837 33.093 90.0782C32.9781 90.2727 32.9206 90.5071 32.9206 90.7812C32.9206 91.0464 32.9781 91.2807 33.093 91.4841C33.2168 91.6786 33.376 91.8334 33.5705 91.9483C33.7739 92.0633 33.9993 92.1207 34.2469 92.1207C34.4945 92.1207 34.7067 92.081 34.8836 92.0014C35.0604 91.9218 35.2151 91.8069 35.3478 91.6565L36.82 93.1155C36.4574 93.4692 36.064 93.7344 35.6396 93.9113C35.224 94.0881 34.7509 94.1765 34.2204 94.1765ZM40.6833 94.1765C39.9848 94.1765 39.3614 94.0306 38.8132 93.7389C38.2738 93.4382 37.845 93.0315 37.5267 92.5186C37.2083 91.997 37.0492 91.4134 37.0492 90.7679C37.0492 90.1224 37.2039 89.5477 37.5134 89.0437C37.8317 88.5309 38.265 88.1285 38.8132 87.8367C39.3614 87.5361 39.9803 87.3858 40.67 87.3858C41.3597 87.3858 41.9742 87.5361 42.5136 87.8367C43.0618 88.1285 43.4951 88.5309 43.8134 89.0437C44.1317 89.5477 44.2909 90.1224 44.2909 90.7679C44.2909 91.4134 44.1317 91.997 43.8134 92.5186C43.5039 93.0315 43.0751 93.4382 42.5269 93.7389C41.9875 94.0306 41.373 94.1765 40.6833 94.1765ZM40.67 92.1207C40.9264 92.1207 41.1475 92.0677 41.3332 91.9616C41.5277 91.8466 41.678 91.6875 41.7841 91.4841C41.8902 91.2807 41.9433 91.0464 41.9433 90.7812C41.9433 90.5159 41.8858 90.286 41.7709 90.0915C41.6648 89.8881 41.5189 89.7334 41.3332 89.6273C41.1475 89.5123 40.9264 89.4549 40.67 89.4549C40.4224 89.4549 40.2014 89.5123 40.0069 89.6273C39.8123 89.7422 39.662 89.9014 39.5559 90.1047C39.4498 90.2993 39.3968 90.5292 39.3968 90.7944C39.3968 91.0509 39.4498 91.2807 39.5559 91.4841C39.662 91.6875 39.8123 91.8466 40.0069 91.9616C40.2014 92.0677 40.4224 92.1207 40.67 92.1207ZM49.066 94.1633C48.6504 94.1633 48.2658 94.0881 47.9121 93.9378C47.5584 93.7875 47.2666 93.5841 47.0368 93.3277C46.8069 93.0624 46.6654 92.7574 46.6123 92.4125V89.2559C46.6654 88.9111 46.8069 88.6016 47.0368 88.3275C47.2755 88.0445 47.5673 87.8235 47.9121 87.6643C48.2658 87.4963 48.6504 87.4123 49.066 87.4123C49.6938 87.4123 50.2464 87.5582 50.7239 87.85C51.2014 88.133 51.5728 88.5309 51.838 89.0437C52.1121 89.5565 52.2492 90.1401 52.2492 90.7944C52.2492 91.4399 52.1121 92.0191 51.838 92.5319C51.5728 93.0359 51.2014 93.4338 50.7239 93.7256C50.2464 94.0174 49.6938 94.1633 49.066 94.1633ZM45.2064 96.7761V87.545H47.5142V89.1763L47.1296 90.7414L47.4612 92.3197V96.7761H45.2064ZM48.6283 92.1075C48.8848 92.1075 49.1102 92.05 49.3048 91.9351C49.4993 91.8201 49.6496 91.6654 49.7557 91.4709C49.8618 91.2675 49.9149 91.0376 49.9149 90.7812C49.9149 90.5247 49.8618 90.2993 49.7557 90.1047C49.6496 89.9102 49.4993 89.7555 49.3048 89.6405C49.1102 89.5256 48.8892 89.4681 48.6416 89.4681C48.4029 89.4681 48.1862 89.5256 47.9917 89.6405C47.7972 89.7466 47.6469 89.9014 47.5408 90.1047C47.4346 90.2993 47.3816 90.5247 47.3816 90.7812C47.3816 91.0376 47.4346 91.2675 47.5408 91.4709C47.6469 91.6654 47.7928 91.8201 47.9784 91.9351C48.173 92.05 48.3896 92.1075 48.6283 92.1075ZM56.474 94.1765C55.749 94.1765 55.1079 94.0351 54.5508 93.7521C53.9938 93.4603 53.5561 93.058 53.2378 92.5452C52.9195 92.0323 52.7603 91.4443 52.7603 90.7812C52.7603 90.1269 52.9151 89.5477 53.2245 89.0437C53.534 88.5309 53.954 88.1285 54.4845 87.8367C55.0239 87.5361 55.6296 87.3858 56.3016 87.3858C56.9559 87.3858 57.5351 87.5273 58.0391 87.8102C58.5519 88.0843 58.9498 88.469 59.2327 88.9641C59.5245 89.4504 59.6704 90.0075 59.6704 90.6353C59.6704 90.7679 59.6616 90.905 59.6439 91.0464C59.6351 91.1791 59.6085 91.3338 59.5643 91.5106L53.8479 91.5372V90.0517L58.6492 90.0119L57.6146 90.6618C57.6058 90.2993 57.5527 90.0031 57.4555 89.7732C57.3582 89.5344 57.2167 89.3532 57.0311 89.2294C56.8454 89.1056 56.6111 89.0437 56.3281 89.0437C56.0363 89.0437 55.7843 89.1144 55.5721 89.2559C55.3599 89.3974 55.1963 89.5963 55.0814 89.8527C54.9664 90.1092 54.909 90.4186 54.909 90.7812C54.909 91.1525 54.9708 91.4709 55.0946 91.7361C55.2184 91.9925 55.3953 92.1871 55.6252 92.3197C55.8551 92.4523 56.138 92.5186 56.474 92.5186C56.7923 92.5186 57.0708 92.4656 57.3096 92.3595C57.5572 92.2534 57.7782 92.0898 57.9727 91.8687L59.1797 93.0757C58.8614 93.4382 58.4723 93.7123 58.0125 93.898C57.5616 94.0837 57.0487 94.1765 56.474 94.1765Z" fill="#F5FFFF"/>
</svg>
