<svg width="18" height="18" viewBox="0 0 18 18" fill="none" xmlns="http://www.w3.org/2000/svg">
<g clip-path="url(#clip0_1_155)">
<path d="M17.5587 8.2816L9.83022 0.553541C9.38541 0.108455 8.66353 0.108455 8.21817 0.553541L6.61332 2.1584L8.64915 4.19423C9.12224 4.03437 9.66475 4.14161 10.0419 4.51873C10.4208 4.89827 10.5273 5.44541 10.3635 5.92002L12.3255 7.88208C12.8002 7.71855 13.3479 7.82434 13.727 8.20409C14.2569 8.73374 14.2569 9.59217 13.727 10.1222C13.197 10.6522 12.3386 10.6522 11.8083 10.1222C11.4098 9.7232 11.3113 9.13789 11.5131 8.64689L9.68335 6.81718L9.68315 11.6322C9.8158 11.6978 9.93694 11.7844 10.0419 11.8888C10.5717 12.4184 10.5717 13.2769 10.0419 13.8073C9.51187 14.3371 8.65302 14.3371 8.12379 13.8073C7.59393 13.2769 7.59393 12.4185 8.12379 11.8888C8.25082 11.7618 8.40171 11.6612 8.56777 11.5928V6.73289C8.40144 6.66495 8.25046 6.56429 8.12379 6.43688C7.72233 6.03598 7.62581 5.44693 7.83151 4.954L5.82465 2.94693L0.525377 8.24585C0.0800828 8.69135 0.0800828 9.4133 0.525377 9.85845L8.25399 17.5866C8.69894 18.0318 9.42067 18.0318 9.86617 17.5866L17.5586 9.89434C18.0038 9.44904 18.0038 8.72669 17.5587 8.2816Z" fill="white"/>
</g>
<defs>
<clipPath id="clip0_1_155">
<rect width="17.7011" height="17.7011" fill="white" transform="translate(0.191406 0.219238)"/>
</clipPath>
</defs>
</svg>
