<svg width="20" height="21" viewBox="0 0 20 21" fill="none" xmlns="http://www.w3.org/2000/svg">
<g clip-path="url(#clip0_1195_7676)">
<path d="M16.733 10.7136C16.6127 11.0841 16.418 11.426 16.161 11.718L14.6924 13.1841L11.8525 10.3491L14.6924 7.51403L16.161 8.95182C16.418 9.15714 16.6093 9.43368 16.7113 9.74715C16.8129 10.0602 16.8205 10.3963 16.733 10.7136ZM9.43049 17.2302C9.0688 17.1058 8.73613 16.9087 8.45276 16.651L6.98827 15.1889L9.82806 12.3539L12.668 15.1889L11.1953 16.659C10.9887 16.9162 10.7118 17.1071 10.3986 17.2084C10.0849 17.31 9.74846 17.3176 9.43049 17.2302ZM2.89888 9.94002C3.02099 9.56854 3.21854 9.22654 3.47905 8.93564L4.9476 7.4735L7.78748 10.3086L4.9476 13.1437L3.47498 11.6735C3.21774 11.4673 3.02606 11.1902 2.92344 10.8762C2.82113 10.5627 2.81259 10.226 2.89888 9.90765V9.94002ZM10.2014 3.39104C10.5746 3.51142 10.9186 3.70867 11.2115 3.97016L12.6761 5.43231L9.83628 8.26737L6.9964 5.43231L8.45276 4.0026C8.65934 3.74544 8.93627 3.55449 9.24951 3.45322C9.56324 3.3517 9.89964 3.34415 10.2176 3.43149L10.2014 3.39104ZM18.1895 6.947L13.2156 1.99778C12.6324 1.45372 11.9411 1.03967 11.1872 0.782821C9.49542 0.2198 7.81588 0.657226 6.4527 1.99778L1.47492 6.947C0.931028 7.52792 0.516176 8.21814 0.257796 8.97201C-0.306096 10.661 0.132 12.3417 1.47492 13.7026L6.42438 18.6639C7.00497 19.2172 7.6965 19.6397 8.45276 19.9033C8.91444 20.0589 9.39792 20.1395 9.88494 20.1421C10.5064 20.1297 11.119 19.9924 11.6867 19.7383C12.2535 19.4846 12.7638 19.1193 13.1873 18.6639L18.1895 13.7187C18.7408 13.1399 19.1627 12.4495 19.4268 11.6937C19.9908 10.0047 19.5485 8.32408 18.1895 6.96726" fill="white"/>
</g>
<defs>
<clipPath id="clip0_1195_7676">
<rect width="19.6483" height="19.6483" fill="white" transform="translate(0.0175781 0.542969)"/>
</clipPath>
</defs>
</svg>
