<svg width="21" height="20" viewBox="0 0 21 20" fill="none" xmlns="http://www.w3.org/2000/svg">
<g clip-path="url(#clip0_1195_7711)">
<path d="M20.2443 12.8351C19.8425 14.2942 19.0973 15.6022 18.007 16.7577L17.959 16.8088C16.5975 18.2517 15.012 19.1168 13.204 19.408C12.7364 19.483 12.2642 19.5204 11.7913 19.52C9.36275 19.52 7.28602 18.6 5.55896 16.7577C4.47562 15.6018 3.73566 14.2942 3.33686 12.8351H20.2443ZM20.5837 10.6535C20.5676 11.001 20.5338 11.3407 20.4851 11.6739L20.4682 11.7847H3.11459C3.06175 11.4484 3.0255 11.1094 3.00599 10.769L3.00008 10.6535H20.5837ZM20.4679 8.47187C20.521 8.80815 20.5574 9.14717 20.5772 9.48753L20.5832 9.60304H3C3.0158 9.26134 3.04847 8.92076 3.09786 8.58272L3.11451 8.47187H20.4679ZM20.2447 7.42118C19.8433 5.9582 19.0979 4.6443 18.0069 3.48046C16.6384 2.02068 15.0413 1.14477 13.218 0.850045C12.7458 0.774006 12.2688 0.735994 11.7912 0.73633C9.36275 0.73633 7.28587 1.65129 5.55896 3.48055C4.47524 4.64422 3.73489 5.95804 3.33632 7.42118" fill="white"/>
<path d="M2.47762 10.1285C2.47762 5.17384 5.96611 1.05727 10.5043 0.333144C10.3917 0.328887 10.2786 0.323975 10.165 0.323975C5.07219 0.323975 0.943359 4.71374 0.943359 10.1285C0.943359 15.5435 5.07204 19.933 10.1649 19.933C10.279 19.933 10.3921 19.9284 10.5051 19.924C5.96611 19.1999 2.47762 15.0831 2.47762 10.1285Z" fill="white"/>
<path d="M17.776 9.60293C17.7473 9.22079 17.6863 8.84217 17.594 8.47168H5.99072C5.8983 8.84217 5.83734 9.22078 5.80859 9.60293H17.776Z" fill="white"/>
<path d="M17.7757 10.6536H5.80859C5.83727 11.0357 5.89815 11.4143 5.99049 11.7847H17.5939C17.6862 11.4143 17.747 11.0357 17.7757 10.6536Z" fill="white"/>
<path d="M11.7909 16.5344C14.2005 16.5344 16.2777 15.02 17.2341 12.8352H6.34766C7.30398 15.02 9.38117 16.5344 11.7909 16.5344Z" fill="white"/>
<path d="M20.4663 11.7846C20.4078 12.1393 20.3301 12.4901 20.2336 12.8352H3.33712C3.24088 12.4928 3.1738 12.1421 3.11478 11.7846H20.4663ZM20.5687 9.603C20.5784 9.78393 20.5847 9.9656 20.5847 10.1488C20.5847 10.3183 20.5801 10.4865 20.5718 10.6536H2.99727C2.98881 10.4855 2.98451 10.3172 2.98438 10.1488C2.98438 9.9656 2.99067 9.78369 3.00042 9.603H20.5687ZM20.176 7.42139C20.2739 7.76642 20.3529 8.11721 20.4127 8.472H3.11493C3.17556 8.1144 3.23873 7.76343 3.33659 7.42139H20.176Z" fill="#1E1E1E"/>
</g>
<defs>
<clipPath id="clip0_1195_7711">
<rect width="19.6483" height="19.6483" fill="white" transform="translate(0.943359 0.323975)"/>
</clipPath>
</defs>
</svg>
