<svg width="20" height="20" viewBox="0 0 20 20" fill="none" xmlns="http://www.w3.org/2000/svg">
<g clip-path="url(#clip0_1195_7775)">
<path fill-rule="evenodd" clip-rule="evenodd" d="M1.31934 6.84825C-0.439781 8.60738 -0.439781 11.4592 1.31934 13.2181L6.41507 18.3139C8.17419 20.0729 11.026 20.0729 12.785 18.3139L17.8808 13.2181C19.6397 11.459 19.6397 8.60715 17.8808 6.84825L12.785 1.75252C11.0258 -0.00637534 8.17397 -0.00637534 6.41507 1.75252L1.31934 6.84825ZM11.8294 12.2627C13.0607 11.0313 13.0607 9.03503 11.8294 7.80382C10.5981 6.5724 8.60184 6.5724 7.37064 7.80382C6.13922 9.03518 6.13922 11.0313 7.37064 12.2627C8.60199 13.4939 10.5981 13.4939 11.8295 12.2627H11.8294Z" fill="white"/>
</g>
<defs>
<clipPath id="clip0_1195_7775">
<rect width="19.2" height="19.2" fill="white" transform="translate(0 0.43335)"/>
</clipPath>
</defs>
</svg>
