<svg width="29" height="29" viewBox="0 0 29 29" fill="none" xmlns="http://www.w3.org/2000/svg">
<path d="M23.1242 3.95854C23.7475 3.95854 24.3452 4.20613 24.7859 4.64684C25.2266 5.08755 25.4742 5.68528 25.4742 6.30854V22.7585C25.4742 23.3818 25.2266 23.9795 24.7859 24.4202C24.3452 24.861 23.7475 25.1085 23.1242 25.1085H6.67422C6.05096 25.1085 5.45323 24.861 5.01252 24.4202C4.57181 23.9795 4.32422 23.3818 4.32422 22.7585V6.30854C4.32422 5.68528 4.57181 5.08755 5.01252 4.64684C5.45323 4.20613 6.05096 3.95854 6.67422 3.95854H23.1242ZM22.5367 22.171V15.9435C22.5367 14.9276 22.1331 13.9533 21.4148 13.235C20.6964 12.5166 19.7221 12.113 18.7062 12.113C17.7075 12.113 16.5442 12.724 15.9802 13.6405V12.3363H12.702V22.171H15.9802V16.3783C15.9802 15.4735 16.7087 14.7333 17.6135 14.7333C18.0497 14.7333 18.4682 14.9066 18.7767 15.2151C19.0852 15.5236 19.2585 15.942 19.2585 16.3783V22.171H22.5367ZM8.88322 10.4915C9.40676 10.4915 9.90885 10.2836 10.279 9.91337C10.6492 9.54317 10.8572 9.04108 10.8572 8.51754C10.8572 7.42479 9.97597 6.53179 8.88322 6.53179C8.35656 6.53179 7.85148 6.741 7.47908 7.1134C7.10668 7.4858 6.89747 7.99089 6.89747 8.51754C6.89747 9.61029 7.79047 10.4915 8.88322 10.4915ZM10.5165 22.171V12.3363H7.26172V22.171H10.5165Z" fill="white"/>
</svg>
