<svg width="30" height="30" viewBox="0 0 30 30" fill="none" xmlns="http://www.w3.org/2000/svg">
<path d="M20.3333 6.99984C20.3333 4.48517 20.3333 3.22917 19.552 2.44784C18.7707 1.6665 17.5147 1.6665 15 1.6665C12.4853 1.6665 11.2293 1.6665 10.448 2.44784C9.66666 3.22917 9.66666 4.48517 9.66666 6.99984M1.66666 17.6665C1.66666 12.6385 1.66666 10.1238 3.22932 8.5625C4.79199 7.00117 7.30532 6.99984 12.3333 6.99984H17.6667C22.6947 6.99984 25.2093 6.99984 26.7707 8.5625C28.332 10.1252 28.3333 12.6385 28.3333 17.6665C28.3333 22.6945 28.3333 25.2092 26.7707 26.7705C25.208 28.3318 22.6947 28.3332 17.6667 28.3332H12.3333C7.30532 28.3332 4.79066 28.3332 3.22932 26.7705C1.66799 25.2078 1.66666 22.6945 1.66666 17.6665Z" stroke="#F5FFFF" stroke-width="2"/>
<path d="M15 22.1103C16.4733 22.1103 17.6666 21.1157 17.6666 19.889C17.6666 18.6623 16.4733 17.6663 15 17.6663C13.5266 17.6663 12.3333 16.6717 12.3333 15.4437C12.3333 14.217 13.5266 13.2223 15 13.2223M15 22.1103C13.5266 22.1103 12.3333 21.1157 12.3333 19.889M15 22.1103V22.9997M15 13.2223V12.333M15 13.2223C16.4733 13.2223 17.6666 14.217 17.6666 15.4437" stroke="#F5FFFF" stroke-width="2" stroke-linecap="round"/>
</svg>
