<svg width="32" height="24" viewBox="0 0 32 24" fill="none" xmlns="http://www.w3.org/2000/svg">
<path d="M28.9062 6.75C29.375 7.01042 29.8021 7.32812 30.1875 7.70312C30.5729 8.07812 30.8958 8.49479 31.1562 8.95312C31.4167 9.41146 31.625 9.89583 31.7812 10.4062C31.9375 10.9167 32.0104 11.4479 32 12H30C30 11.4583 29.8958 10.9427 29.6875 10.4531C29.4792 9.96354 29.1927 9.54167 28.8281 9.1875C28.4635 8.83333 28.0365 8.54688 27.5469 8.32812C27.0573 8.10938 26.5417 8 26 8C25.4479 8 24.9323 8.10417 24.4531 8.3125C23.974 8.52083 23.5521 8.80729 23.1875 9.17188C22.8229 9.53646 22.5365 9.96354 22.3281 10.4531C22.1198 10.9427 22.0104 11.4583 22 12C22 12.9479 21.7865 13.849 21.3594 14.7031C20.9323 15.5573 20.3333 16.2656 19.5625 16.8281C20.2396 17.1719 20.849 17.5938 21.3906 18.0938C21.9323 18.5938 22.401 19.1562 22.7969 19.7812C23.1927 20.4062 23.4896 21.0729 23.6875 21.7812C23.8854 22.4896 23.9896 23.2292 24 24H22C22 23.1771 21.8438 22.401 21.5312 21.6719C21.2188 20.9427 20.7865 20.3073 20.2344 19.7656C19.6823 19.224 19.0469 18.7969 18.3281 18.4844C17.6094 18.1719 16.8333 18.0104 16 18C15.1771 18 14.401 18.1562 13.6719 18.4688C12.9427 18.7812 12.3073 19.2135 11.7656 19.7656C11.224 20.3177 10.7969 20.9531 10.4844 21.6719C10.1719 22.3906 10.0104 23.1667 10 24H8C8 23.2396 8.10417 22.5052 8.3125 21.7969C8.52083 21.0885 8.81771 20.4219 9.20312 19.7969C9.58854 19.1719 10.0521 18.6094 10.5938 18.1094C11.1354 17.6094 11.75 17.1823 12.4375 16.8281C11.6771 16.2656 11.0833 15.5573 10.6562 14.7031C10.2292 13.849 10.0104 12.9479 10 12C10 11.4583 9.89583 10.9427 9.6875 10.4531C9.47917 9.96354 9.19271 9.54167 8.82812 9.1875C8.46354 8.83333 8.03646 8.54688 7.54688 8.32812C7.05729 8.10938 6.54167 8 6 8C5.44792 8 4.93229 8.10417 4.45312 8.3125C3.97396 8.52083 3.55208 8.80729 3.1875 9.17188C2.82292 9.53646 2.53646 9.96354 2.32812 10.4531C2.11979 10.9427 2.01042 11.4583 2 12H0C0 11.4583 0.0729167 10.9323 0.21875 10.4219C0.364583 9.91146 0.567708 9.42708 0.828125 8.96875C1.08854 8.51042 1.41667 8.09375 1.8125 7.71875C2.20833 7.34375 2.63542 7.02083 3.09375 6.75C2.75 6.38542 2.48438 5.96354 2.29688 5.48438C2.10938 5.00521 2.01042 4.51042 2 4C2 3.45833 2.10417 2.94271 2.3125 2.45312C2.52083 1.96354 2.80729 1.54167 3.17188 1.1875C3.53646 0.833333 3.95833 0.546875 4.4375 0.328125C4.91667 0.109375 5.4375 0 6 0C6.54167 0 7.05729 0.104167 7.54688 0.3125C8.03646 0.520833 8.45833 0.807292 8.8125 1.17188C9.16667 1.53646 9.45312 1.96354 9.67188 2.45312C9.89062 2.94271 10 3.45833 10 4C10 4.51042 9.90625 5.00521 9.71875 5.48438C9.53125 5.96354 9.26042 6.38542 8.90625 6.75C9.76042 7.21875 10.4583 7.86458 11 8.6875C11.5625 7.85417 12.2812 7.19792 13.1562 6.71875C14.0312 6.23958 14.9792 6 16 6C17.0104 6 17.9531 6.23958 18.8281 6.71875C19.7031 7.19792 20.4271 7.85417 21 8.6875C21.5417 7.86458 22.2396 7.21875 23.0938 6.75C22.75 6.38542 22.4844 5.96354 22.2969 5.48438C22.1094 5.00521 22.0104 4.51042 22 4C22 3.45833 22.1042 2.94271 22.3125 2.45312C22.5208 1.96354 22.8073 1.54167 23.1719 1.1875C23.5365 0.833333 23.9583 0.546875 24.4375 0.328125C24.9167 0.109375 25.4375 0 26 0C26.5417 0 27.0573 0.104167 27.5469 0.3125C28.0365 0.520833 28.4583 0.807292 28.8125 1.17188C29.1667 1.53646 29.4531 1.96354 29.6719 2.45312C29.8906 2.94271 30 3.45833 30 4C30 4.51042 29.9062 5.00521 29.7188 5.48438C29.5312 5.96354 29.2604 6.38542 28.9062 6.75ZM4 4C4 4.28125 4.05208 4.54167 4.15625 4.78125C4.26042 5.02083 4.40104 5.22917 4.57812 5.40625C4.75521 5.58333 4.96875 5.72917 5.21875 5.84375C5.46875 5.95833 5.72917 6.01042 6 6C6.28125 6 6.54167 5.94792 6.78125 5.84375C7.02083 5.73958 7.22917 5.59896 7.40625 5.42188C7.58333 5.24479 7.72917 5.03125 7.84375 4.78125C7.95833 4.53125 8.01042 4.27083 8 4C8 3.71875 7.94792 3.45833 7.84375 3.21875C7.73958 2.97917 7.59896 2.77083 7.42188 2.59375C7.24479 2.41667 7.03125 2.27083 6.78125 2.15625C6.53125 2.04167 6.27083 1.98958 6 2C5.71875 2 5.45833 2.05208 5.21875 2.15625C4.97917 2.26042 4.77083 2.40104 4.59375 2.57812C4.41667 2.75521 4.27083 2.96875 4.15625 3.21875C4.04167 3.46875 3.98958 3.72917 4 4ZM16 16C16.5417 16 17.0573 15.8958 17.5469 15.6875C18.0365 15.4792 18.4583 15.1927 18.8125 14.8281C19.1667 14.4635 19.4531 14.0417 19.6719 13.5625C19.8906 13.0833 20 12.5625 20 12C20 11.4583 19.8958 10.9427 19.6875 10.4531C19.4792 9.96354 19.1927 9.54167 18.8281 9.1875C18.4635 8.83333 18.0365 8.54688 17.5469 8.32812C17.0573 8.10938 16.5417 8 16 8C15.4479 8 14.9323 8.10417 14.4531 8.3125C13.974 8.52083 13.5521 8.80729 13.1875 9.17188C12.8229 9.53646 12.5365 9.96354 12.3281 10.4531C12.1198 10.9427 12.0104 11.4583 12 12C12 12.5521 12.1042 13.0677 12.3125 13.5469C12.5208 14.026 12.8073 14.4479 13.1719 14.8125C13.5365 15.1771 13.9583 15.4635 14.4375 15.6719C14.9167 15.8802 15.4375 15.9896 16 16ZM24 4C24 4.28125 24.0521 4.54167 24.1562 4.78125C24.2604 5.02083 24.401 5.22917 24.5781 5.40625C24.7552 5.58333 24.9688 5.72917 25.2188 5.84375C25.4688 5.95833 25.7292 6.01042 26 6C26.2812 6 26.5417 5.94792 26.7812 5.84375C27.0208 5.73958 27.2292 5.59896 27.4062 5.42188C27.5833 5.24479 27.7292 5.03125 27.8438 4.78125C27.9583 4.53125 28.0104 4.27083 28 4C28 3.71875 27.9479 3.45833 27.8438 3.21875C27.7396 2.97917 27.599 2.77083 27.4219 2.59375C27.2448 2.41667 27.0312 2.27083 26.7812 2.15625C26.5312 2.04167 26.2708 1.98958 26 2C25.7188 2 25.4583 2.05208 25.2188 2.15625C24.9792 2.26042 24.7708 2.40104 24.5938 2.57812C24.4167 2.75521 24.2708 2.96875 24.1562 3.21875C24.0417 3.46875 23.9896 3.72917 24 4Z" fill="#F5FFFF"/>
</svg>
