<svg width="32" height="32" viewBox="0 0 32 32" fill="none" xmlns="http://www.w3.org/2000/svg">
<path d="M21.04 13.3732C21.1382 13.2817 21.2171 13.1713 21.2717 13.0486C21.3264 12.9259 21.3558 12.7935 21.3581 12.6592C21.3605 12.525 21.3358 12.3916 21.2855 12.2671C21.2352 12.1426 21.1603 12.0295 21.0654 11.9345C20.9704 11.8395 20.8573 11.7647 20.7328 11.7144C20.6083 11.6641 20.4749 11.6394 20.3406 11.6418C20.2064 11.6441 20.0739 11.6735 19.9513 11.7282C19.8286 11.7828 19.7182 11.8616 19.6267 11.9599L15 16.5865L13.04 14.6265C12.8504 14.4499 12.5997 14.3537 12.3406 14.3583C12.0816 14.3629 11.8344 14.4678 11.6512 14.6511C11.468 14.8343 11.363 15.0814 11.3584 15.3405C11.3539 15.5996 11.45 15.8503 11.6267 16.0399L15 19.4132L21.04 13.3732Z" fill="#F5FFFF"/>
<path d="M17.3867 2.07988C16.485 1.775 15.508 1.77547 14.6067 2.08121L5.57199 5.14121C4.90777 5.36242 4.32281 5.77319 3.88923 6.32286C3.45565 6.87253 3.19242 7.53707 3.13199 8.23455C2.66133 14.1145 3.45199 18.7359 5.58266 22.3585C7.71999 25.9919 11.128 28.4892 15.6293 30.2639C15.865 30.3567 16.127 30.3567 16.3627 30.2639C20.868 28.4892 24.2773 25.9919 26.416 22.3585C28.5493 18.7359 29.3387 14.1132 28.8693 8.23588C28.8088 7.53824 28.5454 6.87359 28.1115 6.3239C27.6777 5.77421 27.0925 5.36354 26.428 5.14255L17.3867 2.07988ZM15.248 3.97588C15.7331 3.81169 16.2588 3.81169 16.744 3.97588L25.7867 7.03588C26.4027 7.24388 26.8267 7.78388 26.876 8.39455C27.3253 14.0292 26.5453 18.1959 24.692 21.3439C22.9 24.3905 20.0307 26.6052 15.996 28.2559C11.9653 26.6052 9.09866 24.3905 7.30666 21.3439C5.45333 18.1972 4.67466 14.0292 5.12399 8.39455C5.15307 8.0863 5.2717 7.79329 5.46526 7.55163C5.65882 7.30997 5.91886 7.13023 6.21333 7.03455L15.248 3.97588Z" fill="#F5FFFF"/>
</svg>
