<svg width="41" height="41" viewBox="0 0 41 41" fill="none" xmlns="http://www.w3.org/2000/svg">
<g clip-path="url(#clip0_2853_1451)">
<path d="M36.974 9.90665L22.0102 1.02282L21.9886 1.01118L22.1183 0.93639H21.8424C21.5303 0.785437 21.186 0.713039 20.8396 0.725495C20.4931 0.737951 20.155 0.834884 19.8545 1.00786L18.6927 1.67768L4.39216 9.91164C4.06754 10.0994 3.79786 10.3691 3.61004 10.6937C3.42222 11.0183 3.32282 11.3865 3.32178 11.7615V29.5757C3.32178 30.3403 3.72899 31.045 4.39216 31.4256L19.8562 40.3294C20.5243 40.715 21.3487 40.7084 22.0119 40.3145L36.974 31.4306C37.6222 31.0467 38.0194 30.3486 38.0194 29.594V11.7416C38.0194 10.9887 37.6222 10.2906 36.974 9.90665ZM4.92569 10.8358L20.4097 1.92034C20.5723 1.83123 20.7554 1.78619 20.9409 1.78968C21.1263 1.79318 21.3076 1.8451 21.4667 1.94029L36.4288 10.8241C36.5678 10.9088 36.6855 11.0242 36.7729 11.1615L29.222 15.4081L21.746 10.9205C21.5039 10.7745 21.2274 10.6953 20.9447 10.6912C20.662 10.6871 20.3833 10.7582 20.1371 10.8973L12.0776 15.4314L4.52679 11.2446C4.61999 11.0745 4.75793 10.9331 4.92569 10.8358ZM28.4109 24.6194L20.9382 20.4775V11.7632C21.0293 11.7641 21.1184 11.79 21.1958 11.838L28.4109 16.1677V24.6194ZM20.4944 21.4515L28.2929 25.7746L20.9282 30.194L13.2029 25.8477C13.1234 25.8042 13.0573 25.7398 13.0117 25.6615L20.4944 21.4515ZM20.388 39.4053L4.92403 30.5015C4.76103 30.4082 4.62565 30.2734 4.53164 30.1108C4.43764 29.9482 4.38837 29.7636 4.38883 29.5757V12.3898L11.8616 16.5317V25.3806C11.8616 25.9591 12.174 26.4926 12.6776 26.7768L20.6739 31.2744L20.9349 31.4207V39.5433C20.7435 39.5473 20.5546 39.4996 20.388 39.4053Z" fill="#F5FFFF"/>
</g>
<defs>
<clipPath id="clip0_2853_1451">
<rect width="39.89" height="39.89" fill="white" transform="translate(0.725586 0.725098)"/>
</clipPath>
</defs>
</svg>
