<svg width="22" height="22" viewBox="0 0 22 22" fill="none" xmlns="http://www.w3.org/2000/svg">
<path d="M16.4076 7.5351L16.8127 7.1291C17.1353 6.80641 17.5728 6.62508 18.0291 6.625C18.4854 6.62492 18.923 6.80609 19.2457 7.12866C19.5683 7.45123 19.7497 7.88877 19.7498 8.34504C19.7498 8.8013 19.5687 9.23891 19.2461 9.5616L18.841 9.9676M16.4076 7.5351C16.4076 7.5351 16.4583 8.3961 17.2187 9.15647C17.9791 9.91685 18.841 9.9676 18.841 9.9676M16.4076 7.5351L12.6801 11.2626C12.4263 11.5146 12.3003 11.6415 12.1918 11.7806C12.0635 11.9451 11.9544 12.1218 11.8646 12.3108C11.7885 12.4701 11.7325 12.639 11.6196 12.9776L11.2582 14.0626L11.141 14.4135M18.841 9.9676L15.1135 13.6951C14.8597 13.9488 14.7337 14.0748 14.5946 14.1833C14.4301 14.3117 14.2533 14.4208 14.0643 14.5106C13.9051 14.5867 13.7362 14.6427 13.3976 14.7556L12.3126 15.117L11.9617 15.2342M11.141 14.4135L11.0246 14.7652C10.9975 14.8469 10.9936 14.9344 11.0134 15.0182C11.0333 15.1019 11.076 15.1784 11.1368 15.2393C11.1976 15.3001 11.2742 15.3428 11.3579 15.3626C11.4416 15.3824 11.5292 15.3786 11.6108 15.3515L11.9617 15.2342M11.141 14.4135L11.9617 15.2342" stroke="#F5FFFF" stroke-width="1.5"/>
<path d="M7.5 11.875H9.6875M7.5 8.375H13.1875M7.5 15.375H8.8125M17.8495 3.2755C16.8249 2.25 15.1746 2.25 11.875 2.25H10.125C6.82537 2.25 5.17512 2.25 4.1505 3.2755C3.12587 4.301 3.125 5.95038 3.125 9.25V12.75C3.125 16.0496 3.125 17.6999 4.1505 18.7245C5.176 19.7491 6.82537 19.75 10.125 19.75H11.875C15.1746 19.75 16.8249 19.75 17.8495 18.7245C18.6755 17.8994 18.8356 16.67 18.8671 14.5" stroke="#F5FFFF" stroke-width="1.5" stroke-linecap="round"/>
</svg>
