<svg width="32" height="32" viewBox="0 0 32 32" fill="none" xmlns="http://www.w3.org/2000/svg">
<path fill-rule="evenodd" clip-rule="evenodd" d="M17.54 4.47999C16.6453 4.01332 15.4333 4.00665 14.5307 4.47199C11.0733 6.25865 7.93733 8.30532 5.18933 10.576C4.764 10.9267 4.46266 11.4373 4.468 12.0373C4.47333 12.636 4.78 13.1387 5.20266 13.484C7.928 15.712 11.0667 17.7613 14.46 19.5333C15.356 20 16.5667 20.0067 17.4693 19.5413C20.9267 17.7547 24.0627 15.708 26.8107 13.4373C27.236 13.0867 27.5373 12.576 27.532 11.976C27.5267 11.3773 27.2187 10.8747 26.7973 10.5293C24.072 8.30132 20.9333 6.25199 17.54 4.47999ZM15.4467 6.24932C15.6306 6.16754 15.8298 6.12562 16.0311 6.12631C16.2324 6.127 16.4313 6.17029 16.6147 6.25332C19.8533 7.94399 22.8373 9.88932 25.4227 11.9893C22.8227 14.124 19.8467 16.0627 16.552 17.764C16.232 17.9293 15.708 17.928 15.3853 17.76C12.1467 16.0693 9.16266 14.124 6.576 12.024C9.17733 9.88932 12.1533 7.95065 15.448 6.24932" fill="#F5FFFF"/>
<path d="M28.2627 16.9306C28.403 17.1556 28.4482 17.427 28.3884 17.6853C28.3287 17.9435 28.1688 18.1675 27.944 18.308L19.8013 23.392C18.696 24.0826 17.3253 24.4013 16 24.4013C14.6747 24.4013 13.304 24.0813 12.1987 23.3933L4.14532 18.3666C3.92024 18.2262 3.76015 18.0022 3.70026 17.7438C3.64038 17.4853 3.6856 17.2137 3.82599 16.9886C3.96638 16.7636 4.19043 16.6035 4.44885 16.5436C4.70728 16.4837 4.97891 16.5289 5.20399 16.6693L13.2573 21.696C13.9827 22.1493 14.968 22.4013 16 22.4013C17.0307 22.4013 18.016 22.148 18.7413 21.6946L26.8853 16.612C27.1103 16.4717 27.3817 16.4264 27.64 16.4862C27.8982 16.5459 28.1222 16.7058 28.2627 16.9306Z" fill="#F5FFFF"/>
<path d="M28.2627 21.9372C28.403 22.1621 28.4482 22.4336 28.3885 22.6919C28.3287 22.9501 28.1688 23.1741 27.944 23.3146L20.8933 27.7199C19.4827 28.5999 17.72 29.0146 16 29.0146C14.2827 29.0146 12.52 28.6012 11.108 27.7212L4.14535 23.3746C3.92026 23.234 3.76024 23.0098 3.70048 22.7512C3.64072 22.4927 3.68611 22.221 3.82668 21.9959C3.96724 21.7708 4.19146 21.6108 4.45001 21.551C4.70856 21.4913 4.98026 21.5367 5.20535 21.6772L12.168 26.0239C13.1987 26.6679 14.5773 27.0146 16.0013 27.0146C17.4253 27.0146 18.804 26.6679 19.8347 26.0239L26.8853 21.6199C26.9968 21.5502 27.1208 21.5032 27.2505 21.4815C27.3801 21.4598 27.5127 21.4639 27.6407 21.4935C27.7688 21.5231 27.8897 21.5776 27.9967 21.654C28.1036 21.7303 28.1945 21.8271 28.264 21.9386" fill="#F5FFFF"/>
</svg>
