<svg width="19" height="19" viewBox="0 0 19 19" fill="none" xmlns="http://www.w3.org/2000/svg">
<g clip-path="url(#clip0_1_123)">
<path d="M11.217 10.6654C10.7289 11.2217 10.1347 11.6769 9.46585 12.0069V13.9035C9.46585 14.0711 9.39924 14.2319 9.28069 14.3505C9.16213 14.469 9.00133 14.5356 8.83367 14.5356H5.04057C4.8729 14.5356 4.71211 14.469 4.59355 14.3505C4.47499 14.2319 4.40839 14.0711 4.40839 13.9035V12.0069C3.07618 11.3419 2.05773 10.1812 1.57159 8.7739C1.08544 7.36656 1.17034 5.82473 1.80807 4.47927C2.4458 3.13382 3.58554 2.09196 4.9827 1.57729C6.37986 1.06261 7.9231 1.11613 9.28125 1.72635M4.40839 17.6574H9.46585" stroke="white" stroke-width="1.26437" stroke-linecap="round" stroke-linejoin="round"/>
<path d="M9.93831 5.56232C9.49452 5.4852 9.49452 4.84796 9.93831 4.77083C10.7238 4.63343 11.4507 4.26555 12.0266 3.71397C12.6026 3.16238 13.0014 2.452 13.1726 1.67314L13.1991 1.54923C13.2952 1.11049 13.9198 1.10796 14.0197 1.54543L14.0526 1.68831C14.2292 2.46416 14.6313 3.17043 15.2084 3.71826C15.7855 4.26609 16.5117 4.63099 17.2957 4.76704C17.742 4.84543 17.742 5.4852 17.2957 5.56359C16.5119 5.69986 15.786 6.06487 15.2091 6.61268C14.6323 7.16049 14.2303 7.86664 14.0538 8.64232L14.0209 8.78519C13.9211 9.22266 13.2965 9.22013 13.2004 8.7814L13.1751 8.65875C13.0038 7.87955 12.6045 7.16892 12.0281 6.6173C11.4518 6.06567 10.7243 5.69926 9.93831 5.56232Z" stroke="white" stroke-width="1.26437" stroke-linecap="round" stroke-linejoin="round"/>
</g>
<defs>
<clipPath id="clip0_1_123">
<rect width="17.7011" height="17.7011" fill="white" transform="translate(0.587891 0.588379)"/>
</clipPath>
</defs>
</svg>
