<svg width="32" height="32" viewBox="0 0 32 32" fill="none" xmlns="http://www.w3.org/2000/svg">
<path d="M27.1733 11.4265L25.5333 13.8932C26.3242 15.4706 26.7114 17.2196 26.6602 18.9835C26.6091 20.7473 26.1211 22.4709 25.24 23.9998H6.76001C5.6149 22.0133 5.1404 19.7107 5.40686 17.4333C5.67332 15.1559 6.66655 13.0249 8.23931 11.3564C9.81207 9.68788 11.8806 8.57056 14.1383 8.1701C16.396 7.76964 18.7227 8.10735 20.7733 9.13317L23.24 7.49317C20.7287 5.88279 17.7498 5.16118 14.7799 5.44375C11.8099 5.72633 9.0206 6.99677 6.858 9.05185C4.69539 11.1069 3.28449 13.8279 2.85096 16.7796C2.41744 19.7312 2.98634 22.743 4.46667 25.3332C4.69935 25.7362 5.03346 26.0713 5.43578 26.3052C5.8381 26.5391 6.29464 26.6637 6.76001 26.6665H25.2267C25.6966 26.6684 26.1586 26.546 26.566 26.3119C26.9734 26.0778 27.3117 25.7401 27.5467 25.3332C28.7752 23.2051 29.3917 20.7789 29.3282 18.3224C29.2646 15.866 28.5235 13.4749 27.1867 11.4132L27.1733 11.4265Z" fill="#F5FFFF"/>
<path d="M14.12 20.5466C14.3677 20.7945 14.6618 20.9912 14.9855 21.1254C15.3092 21.2596 15.6562 21.3287 16.0067 21.3287C16.3571 21.3287 16.7041 21.2596 17.0278 21.1254C17.3516 20.9912 17.6457 20.7945 17.8933 20.5466L25.44 9.22656L14.12 16.7732C13.8721 17.0209 13.6754 17.315 13.5412 17.6387C13.407 17.9625 13.3379 18.3095 13.3379 18.6599C13.3379 19.0103 13.407 19.3573 13.5412 19.6811C13.6754 20.0048 13.8721 20.2989 14.12 20.5466Z" fill="#F5FFFF"/>
</svg>
